<?xml version="1.0" standalone="no"?>
<!DOCTYPE svg PUBLIC "-//W3C//DTD SVG 20010904//EN"
 "http://www.w3.org/TR/2001/REC-SVG-20010904/DTD/svg10.dtd">
<svg version="1.0" xmlns="http://www.w3.org/2000/svg"
 width="1081.000000pt" height="1080.000000pt" viewBox="0 0 1081.000000 1080.000000"
 preserveAspectRatio="xMidYMid meet">

<g transform="translate(0.000000,1080.000000) scale(0.100000,-0.100000)"
fill="#000000" stroke="none">
<path d="M5070 10510 c-193 -41 -393 -140 -564 -279 -107 -87 -253 -255 -323
-372 -85 -144 -114 -221 -158 -423 -16 -74 -16 -94 0 -159 6 -22 0 -29 -48
-61 -103 -68 -146 -149 -147 -271 0 -107 33 -179 124 -269 l65 -64 -52 -39
c-29 -21 -70 -65 -92 -98 -37 -56 -40 -66 -43 -142 -6 -133 35 -241 123 -322
l44 -41 3 -2312 3 -2313 21 -45 c12 -25 64 -109 115 -186 52 -78 118 -181 148
-228 75 -123 429 -632 520 -749 42 -54 89 -117 105 -140 16 -23 70 -98 121
-167 50 -69 131 -185 179 -259 49 -74 110 -156 137 -184 46 -48 49 -50 94 -45
25 3 62 17 83 31 43 28 206 241 442 577 30 43 121 165 201 272 225 299 281
376 343 473 32 50 71 108 86 130 57 83 237 357 279 426 42 67 45 78 53 173 5
55 8 396 6 756 -2 360 -2 1242 -1 1960 1 718 -2 1424 -6 1570 -7 260 -7 265
14 280 57 42 103 94 130 147 27 53 30 66 29 149 -1 69 -7 102 -23 139 -28 63
-41 77 -123 132 -38 25 -68 49 -68 54 0 4 25 24 55 44 109 73 158 163 159 290
1 101 -21 148 -106 226 l-62 57 -3 88 c-5 135 -49 313 -108 440 -63 135 -131
229 -262 361 -195 197 -307 269 -532 343 -200 66 -237 70 -576 69 -248 -1
-315 -4 -385 -19z m815 -218 c125 -42 172 -63 279 -127 125 -75 223 -159 296
-256 55 -71 150 -221 150 -235 0 -3 11 -29 24 -58 31 -68 75 -208 83 -263 l6
-43 -1246 2 c-847 2 -1249 6 -1256 13 -19 19 12 157 66 295 48 123 73 163 182
295 14 17 63 67 109 112 107 105 247 189 393 238 188 63 203 65 529 61 l295
-3 90 -31z m-735 -1213 c212 0 486 2 610 6 124 3 288 2 365 -2 77 -4 241 -5
365 -2 201 6 229 4 266 -11 43 -18 85 -64 104 -115 25 -65 -41 -180 -118 -207
-29 -10 -289 -13 -1287 -13 l-1250 0 -55 38 c-66 45 -90 85 -90 151 0 59 26
106 79 142 l36 25 295 -6 c162 -3 468 -5 680 -6z m1546 -594 c74 -12 184 -120
184 -180 0 -32 -39 -101 -80 -140 l-30 -29 -1293 -4 -1294 -4 -40 21 c-74 37
-116 126 -93 196 15 46 83 122 123 138 21 9 337 11 1260 9 678 -1 1246 -5
1263 -7z m28 -745 c10 -242 -4 -4333 -14 -4344 -25 -25 -163 71 -448 311 -90
77 -135 103 -174 103 -30 0 -117 -55 -214 -136 -237 -195 -370 -294 -397 -294
-10 0 -33 10 -50 22 -36 24 -226 188 -298 256 -72 68 -172 137 -217 150 -50
15 -83 3 -154 -55 -25 -21 -75 -60 -110 -88 -35 -27 -105 -84 -156 -126 -107
-88 -206 -142 -255 -137 l-32 3 -3 2190 c-2 1204 -1 2217 3 2250 l6 60 1253 0
1253 0 7 -165z m-1800 -4192 c22 -18 59 -48 82 -67 22 -20 83 -70 134 -111 52
-41 123 -100 160 -131 94 -80 122 -93 191 -86 72 6 133 39 224 119 39 33 122
102 185 154 63 51 129 104 145 118 17 14 34 25 39 26 4 0 29 -21 55 -48 25
-26 59 -58 76 -71 16 -14 72 -64 123 -113 68 -64 114 -98 168 -124 41 -19 74
-41 74 -48 0 -6 -38 -66 -85 -131 -114 -161 -331 -482 -378 -558 -20 -34 -41
-63 -46 -65 -5 -2 -34 4 -63 13 -136 40 -771 54 -958 21 -194 -35 -199 -34
-234 37 -8 18 -30 52 -48 76 -18 24 -58 81 -88 127 -30 46 -76 113 -101 151
-92 136 -229 346 -226 347 56 19 300 203 440 333 37 35 72 63 78 63 6 0 30
-14 53 -32z"/>
<path d="M6108 7523 c-39 -6 -112 -75 -138 -130 -26 -56 -24 -109 10 -177 61
-126 214 -142 319 -33 51 52 65 93 56 163 -14 117 -127 198 -247 177z"/>
<path d="M4697 7500 c-72 -40 -126 -144 -112 -219 10 -58 53 -120 103 -152 72
-46 136 -37 228 29 109 80 93 251 -31 330 -55 35 -136 40 -188 12z"/>
<path d="M4950 6842 c-19 -11 -43 -36 -53 -56 -18 -34 -18 -41 -6 -79 18 -56
135 -173 214 -214 158 -82 346 -112 487 -77 141 35 213 67 295 128 62 47 163
170 163 199 0 20 -60 81 -101 102 -41 22 -62 12 -99 -45 -56 -87 -133 -140
-255 -175 -79 -24 -227 -16 -307 14 -72 28 -165 97 -209 155 -30 39 -65 66
-87 66 -4 0 -23 -8 -42 -18z"/>
</g>
</svg>
